<?xml version="1.0" encoding="UTF-8" standalone="no"?>
<!DOCTYPE svg PUBLIC "-//W3C//DTD SVG 1.1//EN" "http://www.w3.org/Graphics/SVG/1.1/DTD/svg11.dtd">
<svg width="100%" height="100%" viewBox="0 0 1000 1000" version="1.1" xmlns="http://www.w3.org/2000/svg" xmlns:xlink="http://www.w3.org/1999/xlink" xml:space="preserve" xmlns:serif="http://www.serif.com/" style="fill-rule:evenodd;clip-rule:evenodd;stroke-linecap:round;stroke-linejoin:round;">
    <g transform="matrix(0.988235,0,0,0.988235,-67.906467,-68.235294)">
        <circle cx="574.667" cy="575" r="425" style="fill:rgb(28,85,141);"/>
    </g>
    <g transform="matrix(35.897208,0,0,35.897208,-17123.155506,-17123.15106)">
        <g transform="matrix(1,0,0,1,478.683817,479.183941)">
            <path d="M12,15L12,20C12,20 15.03,19.45 16,18C17.08,16.38 16,13 16,13" style="fill:rgb(179,179,179);fill-rule:nonzero;stroke:black;stroke-width:1.03px;"/>
        </g>
        <g transform="matrix(1.313508,0,0,1.313508,477.890777,472.443513)">
            <path d="M4.5,16.5C3,17.76 2.5,21.5 2.5,21.5C2.5,21.5 6.24,21 7.5,19.5C8.21,18.66 8.2,17.37 7.41,16.59C6.609,15.826 5.347,15.787 4.5,16.5" style="fill:rgb(217,38,38);fill-rule:nonzero;stroke:black;stroke-width:1.03px;"/>
        </g>
        <g transform="matrix(1,0,0,1,478.683817,479.183941)">
            <path d="M9,12L4,12C4,12 4.55,8.97 6,8C7.62,6.92 11,8.05 11,8.05" style="fill:rgb(179,179,179);fill-rule:nonzero;stroke:black;stroke-width:1.03px;"/>
        </g>
        <g transform="matrix(1,0,0,1,478.683817,479.183941)">
            <path d="M9,12C9.532,10.619 10.202,9.296 11,8.05C13.367,4.266 17.537,1.972 22,2C22,4.72 21.22,9.5 16,13C14.737,13.798 13.397,14.468 12,15L9,12Z" style="fill:rgb(179,179,179);fill-rule:nonzero;stroke:black;stroke-width:1.03px;"/>
        </g>
    </g>
</svg>
